PathFileType	4	(X/Y/Z)	C:\Users\italobelli\Desktop\GitHub\PTbot_officialCBL\Personal_Results\SHRUG21_noisy2.trc
DataRate	CameraRate	NumFrames	NumMarkers	Units	OrigDataRate	OrigDataStartFrame	OrigNumFrames
112.250000	112.250000	25	9	m	112.250000	1	450
Frame#	Time		gu		centelbow		EpL		centpxt8		centijc7		ij		ts		aa		ai
			X1	Y1	Z1	X2	Y2	Z2	X3	Y3	Z3	X4	Y4	Z4	X5	Y5	Z5	X6	Y6	Z6	X7	Y7	Z7	X8	Y8	Z8	X9	Y9	Z9

1	0	-0.076767	-0.01932	0.16549	-0.12857	-0.25882	0.18276	-0.11159	-0.25608	0.21003	-0.046816	-0.15316	-0.008669	-0.046816	0.031938	-0.008669	0	0	0	-0.13511	0.027397	0.054673	-0.10346	0.017953	0.16928	-0.15834	-0.083681	0.05736
2	0.0089087	-0.076765	-0.019335	0.16555	-0.12874	-0.25868	0.18277	-0.11176	-0.25594	0.21004	-0.046816	-0.15316	-0.008669	-0.046816	0.031938	-0.008669	0	0	0	-0.1351	0.027367	0.054699	-0.10344	0.017926	0.1693	-0.15833	-0.083712	0.057389
3	0.017817	-0.076764	-0.01935	0.16561	-0.12891	-0.25853	0.18277	-0.11194	-0.25579	0.21004	-0.046816	-0.15316	-0.008669	-0.046816	0.031938	-0.008669	0	0	0	-0.13509	0.027339	0.054723	-0.10343	0.017901	0.16933	-0.15832	-0.08374	0.057416
4	0.026726	-0.076765	-0.019364	0.16567	-0.12908	-0.25839	0.18278	-0.11211	-0.25565	0.21005	-0.046816	-0.15316	-0.008669	-0.046816	0.031938	-0.008669	0	0	0	-0.13509	0.027314	0.054747	-0.10341	0.017878	0.16935	-0.15831	-0.083766	0.057442
5	0.035635	-0.076766	-0.019378	0.16573	-0.12925	-0.25825	0.18278	-0.11228	-0.25551	0.21005	-0.046816	-0.15316	-0.008669	-0.046816	0.031938	-0.008669	0	0	0	-0.13508	0.02729	0.054769	-0.1034	0.017857	0.16937	-0.1583	-0.08379	0.057466
6	0.044543	-0.076768	-0.019391	0.16579	-0.12942	-0.25811	0.18279	-0.11245	-0.25537	0.21006	-0.046816	-0.15316	-0.008669	-0.046816	0.031938	-0.008669	0	0	0	-0.13507	0.027269	0.054791	-0.10339	0.017839	0.16939	-0.15829	-0.083811	0.057489
7	0.053452	-0.076771	-0.019404	0.16585	-0.12959	-0.25797	0.18279	-0.11261	-0.25523	0.21006	-0.046816	-0.15316	-0.008669	-0.046816	0.031938	-0.008669	0	0	0	-0.13506	0.027249	0.054811	-0.10338	0.017822	0.16941	-0.15828	-0.083831	0.05751
8	0.062361	-0.076775	-0.019416	0.16591	-0.12975	-0.25783	0.18279	-0.11278	-0.25508	0.21006	-0.046816	-0.15316	-0.008669	-0.046816	0.031938	-0.008669	0	0	0	-0.13505	0.027231	0.05483	-0.10337	0.017807	0.16943	-0.15827	-0.083848	0.05753
9	0.071269	-0.076779	-0.019427	0.16597	-0.12991	-0.25769	0.18278	-0.11295	-0.25494	0.21006	-0.046816	-0.15316	-0.008669	-0.046816	0.031938	-0.008669	0	0	0	-0.13504	0.027216	0.054849	-0.10336	0.017794	0.16944	-0.15825	-0.083863	0.057548
10	0.080178	-0.076785	-0.019438	0.16603	-0.13008	-0.25755	0.18278	-0.11311	-0.2548	0.21005	-0.046816	-0.15316	-0.008669	-0.046816	0.031938	-0.008669	0	0	0	-0.13504	0.027202	0.054866	-0.10335	0.017782	0.16946	-0.15824	-0.083876	0.057564
11	0.089087	-0.076791	-0.019448	0.16609	-0.13024	-0.25741	0.18278	-0.11328	-0.25466	0.21005	-0.046816	-0.15316	-0.008669	-0.046816	0.031938	-0.008669	0	0	0	-0.13503	0.02719	0.054883	-0.10334	0.017772	0.16948	-0.15823	-0.083888	0.057579
12	0.097996	-0.076798	-0.019458	0.16615	-0.1304	-0.25727	0.18277	-0.11344	-0.25452	0.21004	-0.046816	-0.15316	-0.008669	-0.046816	0.031938	-0.008669	0	0	0	-0.13502	0.02718	0.054899	-0.10333	0.017764	0.16949	-0.15822	-0.083897	0.057593
13	0.1069	-0.076806	-0.019468	0.16621	-0.13056	-0.25713	0.18276	-0.1136	-0.25438	0.21004	-0.046816	-0.15316	-0.008669	-0.046816	0.031938	-0.008669	0	0	0	-0.13501	0.027172	0.054913	-0.10333	0.017758	0.16951	-0.15821	-0.083905	0.057606
14	0.11581	-0.076815	-0.019477	0.16626	-0.13072	-0.25699	0.18276	-0.11376	-0.25425	0.21003	-0.046816	-0.15316	-0.008669	-0.046816	0.031938	-0.008669	0	0	0	-0.135	0.027166	0.054927	-0.10332	0.017753	0.16952	-0.15821	-0.08391	0.057617
15	0.12472	-0.076824	-0.019486	0.16632	-0.13087	-0.25685	0.18275	-0.11392	-0.25411	0.21002	-0.046816	-0.15316	-0.008669	-0.046816	0.031938	-0.008669	0	0	0	-0.135	0.027161	0.05494	-0.10332	0.01775	0.16953	-0.1582	-0.083914	0.057626
16	0.13363	-0.076835	-0.019494	0.16638	-0.13103	-0.25671	0.18274	-0.11408	-0.25397	0.21001	-0.046816	-0.15316	-0.008669	-0.046816	0.031938	-0.008669	0	0	0	-0.13499	0.027158	0.054953	-0.10332	0.017748	0.16955	-0.15819	-0.083916	0.057635
17	0.14254	-0.076845	-0.019502	0.16643	-0.13118	-0.25658	0.18273	-0.11423	-0.25383	0.21	-0.046816	-0.15316	-0.008669	-0.046816	0.031938	-0.008669	0	0	0	-0.13498	0.027156	0.054964	-0.10331	0.017747	0.16956	-0.15818	-0.083917	0.057642
18	0.15145	-0.076857	-0.019509	0.16649	-0.13133	-0.25644	0.18272	-0.11439	-0.25369	0.20999	-0.046816	-0.15316	-0.008669	-0.046816	0.031938	-0.008669	0	0	0	-0.13497	0.027157	0.054975	-0.10331	0.017748	0.16957	-0.15817	-0.083915	0.057648
19	0.16036	-0.076869	-0.019516	0.16654	-0.13148	-0.2563	0.1827	-0.11454	-0.25355	0.20998	-0.046816	-0.15316	-0.008669	-0.046816	0.031938	-0.008669	0	0	0	-0.13497	0.027159	0.054984	-0.10331	0.01775	0.16958	-0.15816	-0.083913	0.057653
20	0.16927	-0.076881	-0.019523	0.1666	-0.13163	-0.25616	0.18269	-0.11469	-0.25342	0.20997	-0.046816	-0.15316	-0.008669	-0.046816	0.031938	-0.008669	0	0	0	-0.13496	0.027162	0.054994	-0.10331	0.017754	0.16959	-0.15815	-0.083908	0.057656
21	0.17817	-0.076895	-0.01953	0.16665	-0.13178	-0.25603	0.18267	-0.11484	-0.25328	0.20995	-0.046816	-0.15316	-0.008669	-0.046816	0.031938	-0.008669	0	0	0	-0.13495	0.027167	0.055002	-0.10331	0.017758	0.1696	-0.15814	-0.083902	0.057659
22	0.18708	-0.076908	-0.019536	0.1667	-0.13193	-0.25589	0.18266	-0.11499	-0.25314	0.20994	-0.046816	-0.15316	-0.008669	-0.046816	0.031938	-0.008669	0	0	0	-0.13494	0.027173	0.05501	-0.10331	0.017764	0.16961	-0.15813	-0.083895	0.05766
23	0.19599	-0.076923	-0.019542	0.16675	-0.13207	-0.25575	0.18264	-0.11514	-0.25301	0.20992	-0.046816	-0.15316	-0.008669	-0.046816	0.031938	-0.008669	0	0	0	-0.13494	0.027181	0.055017	-0.10331	0.017771	0.16962	-0.15812	-0.083886	0.05766
24	0.2049	-0.076937	-0.019547	0.1668	-0.13222	-0.25562	0.18263	-0.11529	-0.25287	0.20991	-0.046816	-0.15316	-0.008669	-0.046816	0.031938	-0.008669	0	0	0	-0.13493	0.027191	0.055023	-0.10331	0.017779	0.16962	-0.15811	-0.083876	0.057659
25	0.21381	-0.076953	-0.019552	0.16685	-0.13236	-0.25548	0.18261	-0.11543	-0.25273	0.20989	-0.046816	-0.15316	-0.008669	-0.046816	0.031938	-0.008669	0	0	0	-0.13492	0.027201	0.055029	-0.10331	0.017788	0.16963	-0.15811	-0.083864	0.057658
